<svg xmlns="http://www.w3.org/2000/svg" width="32.999" height="32.999" viewBox="0 0 32.999 32.999">
  <g id="Group_5550" data-name="Group 5550" transform="translate(-762 -1189)">
    <g id="Group_5549" data-name="Group 5549">
      <g id="Group_5548" data-name="Group 5548">
        <g id="Group_5547" data-name="Group 5547">
          <g id="Group_5546" data-name="Group 5546">
            <g id="Group_5190" data-name="Group 5190" transform="translate(139.5 321)">
              <path id="Subtraction_81" data-name="Subtraction 81" d="M16.5,33c-1.919,0-3.683-1.139-5.392-3.483a13,13,0,0,1-1.994.168,5.739,5.739,0,0,1-4.281-1.516c-1.357-1.357-1.8-3.41-1.35-6.276C1.139,20.182,0,18.418,0,16.5s1.139-3.683,3.483-5.392c-.449-2.865-.007-4.918,1.35-6.275A5.817,5.817,0,0,1,9.116,3.316a12.975,12.975,0,0,1,1.992.167C12.817,1.139,14.581,0,16.5,0s3.683,1.139,5.392,3.483a12.981,12.981,0,0,1,1.992-.167,5.819,5.819,0,0,1,4.284,1.517c1.357,1.357,1.8,3.409,1.349,6.275C31.86,12.817,33,14.581,33,16.5s-1.139,3.683-3.483,5.392c.449,2.866.008,4.92-1.349,6.276a5.816,5.816,0,0,1-4.282,1.516,12.991,12.991,0,0,1-1.994-.168C20.182,31.86,18.418,33,16.5,33Zm-4.708-6.636a1.494,1.494,0,0,1,1.26.685C14.3,28.979,15.494,30,16.5,30s2.2-1.02,3.448-2.951a1.5,1.5,0,0,1,1.574-.652,11.552,11.552,0,0,0,2.365.29,3,3,0,0,0,2.159-.641c.711-.711.832-2.275.351-4.524a1.512,1.512,0,0,1,.652-1.574C28.979,18.7,30,17.505,30,16.5s-1.02-2.2-2.951-3.448a1.508,1.508,0,0,1-.652-1.573c.482-2.249.36-3.814-.351-4.525a3,3,0,0,0-2.159-.641,11.552,11.552,0,0,0-2.365.29,1.5,1.5,0,0,1-1.574-.652C18.7,4.02,17.505,3,16.5,3s-2.2,1.02-3.448,2.951a1.5,1.5,0,0,1-1.573.652,11.554,11.554,0,0,0-2.366-.29,3,3,0,0,0-2.16.641c-.711.711-.833,2.276-.351,4.525a1.5,1.5,0,0,1-.652,1.573C4.02,14.3,3,15.494,3,16.5s1.02,2.2,2.951,3.448A1.507,1.507,0,0,1,6.6,21.522c-.481,2.249-.36,3.813.351,4.524a3,3,0,0,0,2.16.641,11.554,11.554,0,0,0,2.366-.29A1.506,1.506,0,0,1,11.792,26.364Z" transform="translate(622.5 868)" fill="#1894ff"/>
              <path id="Path" d="M5.561,6.439,12,0l2.121,2.121L5.561,10.682,0,5.121,2.121,3Z" transform="translate(631.939 878.939)" fill="#00de9a"/>
            </g>
          </g>
        </g>
      </g>
    </g>
  </g>
</svg>
