<svg xmlns="http://www.w3.org/2000/svg" width="413.669" height="336.666" viewBox="0 0 413.669 336.666"><g transform="translate(-20.891 -24.415)"><rect width="103.627" height="129.162" transform="translate(230.59 24.415)" fill="#e6f3ff"/><rect width="307.737" height="153.444" transform="translate(126.823 199.303)" fill="#e6f3ff"/><rect width="307.737" height="20.177" transform="translate(126.823 199.303)" fill="#1894ff"/><path d="M286.219,140.678s-15.2-4.077-18.549-18.187c0,0,23.475-4.843,24.254,19.481Z" transform="translate(85.249 39.478)" fill="#00de9a" opacity="0.58"/><path d="M283.749,143.479s-10.673-16.7-1.392-32.409c0,0,17.909,11.271,10.061,32.409Z" transform="translate(89.515 35.16)" fill="#00de9a" opacity="0.73"/><path d="M284.25,140.307s5.566-17.714,22.431-21.137c0,0,3.214,11.48-10.868,21.137Z" transform="translate(91.741 38.331)" fill="#00de9a"/><path d="M276.34,134.11l3.173,21.012h19.356l2.769-21.012Z" transform="translate(88.644 44.181)" fill="#2361b5"/><circle cx="6.54" cy="6.54" r="6.54" transform="translate(251.477 41.016)" fill="#c2e3ff"/><path d="M217.025,52.027c-.849-4.759-12.176-4.4-12.774-4.383s-11.912-.376-12.76,4.383c-.71,3.966-3.354,19.913-4.328,25.813a2.379,2.379,0,0,0,1.809,2.783h0a2.393,2.393,0,0,0,2.867-1.809l4.689-20.97.877,23.308-.807,34.427a2.783,2.783,0,0,0,2.449,2.783h0a2.783,2.783,0,0,0,3.117-2.588l1.475-23.656a.612.612,0,1,1,1.225,0l1.489,23.656a2.783,2.783,0,0,0,3.117,2.588h0a2.783,2.783,0,0,0,2.449-2.783l-.807-34.427L212,57.774l4.662,20.984a2.394,2.394,0,0,0,2.867,1.809h0a2.393,2.393,0,0,0,1.823-2.783C220.351,71.939,217.721,55.992,217.025,52.027Z" transform="translate(53.71 10.322)" fill="#c2e3ff"/><rect width="37.223" height="30.085" rx="5" transform="translate(284.86 39.068)" fill="#00de9a"/><rect width="37.223" height="6.123" transform="translate(284.86 79.951)" fill="#1894ff" opacity="0.16"/><rect width="37.223" height="6.123" transform="translate(284.86 91.932)" fill="#1894ff" opacity="0.16"/><rect width="37.223" height="6.123" transform="translate(284.86 105.333)" fill="#1894ff" opacity="0.16"/><circle cx="7.987" cy="7.987" r="7.987" transform="translate(310.575 128.349)" fill="#1894ff"/><path d="M255.6,152.23s8.349,41.746-23.656,56.594-34.44,54.1-10.325,93.845H112.51l6.665-117.5,64.01-35.957,55.661.7Z" transform="translate(24.5 50.093)" fill="#2361b5" opacity="0.08"/><g transform="translate(-28.349 26.674)"><path d="M108.973,64.25S54.241,71.953,50.3,133.4l37.81,8.987Z" transform="translate(0.103 12.201)" fill="#1894ff"/><path d="M109.439,64.25S54.273,72.1,50.3,134.68l38.11,9.154Z" transform="matrix(1, 0.017, -0.017, 1, 1.458, 10.202)" fill="#e6f3ff"/><path d="M53.626,118.73s-16.793,62.409,21.287,62.525l12.518-32.1L81.152,125.3Z" transform="translate(0 27.666)" fill="#f4a28c"/><path d="M53.626,118.73s-16.793,62.409,21.287,62.525l12.518-32.1L81.152,125.3Z" transform="translate(0 27.666)" fill="#ce8172" opacity="0.31"/><path d="M109.428,255.14s-1.99,5.6-7.036,6.034-6.419,5.392-1.81,6.663,16.228-4.609,16.228-4.609l-.347-7.28Z" transform="translate(13.578 66.389)" fill="#2361b5"/><path d="M166.1,254.47s1.99,5.6,7.036,6.047,6.355,5.379,1.81,6.65-16.241-4.6-16.241-4.6l.359-7.292Z" transform="translate(30.875 66.199)" fill="#2361b5"/><path d="M140.316,41.765l-3.171-3.12h0c-.539-3.338-1.194-5.854-1.194-5.854-1.155-5.662-10.053-8.409-14.688-3.736a8.486,8.486,0,0,0-2.221,9.591l4.16,7.7c1.862,4.75,6.163,6.111,9.4,6.419a4.75,4.75,0,0,0,5.135-4.339,26.542,26.542,0,0,0,0-3.364l1.977-.732a1.515,1.515,0,0,0,.6-2.568Z" transform="translate(19.435 1.536)" fill="#f4a28c"/><path d="M119.881,38.68l-2.581,30.9,17.127.205-4.879-22.006Z" transform="translate(19.122 4.942)" fill="#f4a28c"/><path d="M114.71,33.641c3.2,1.618,3.646,5.572,4.481,8.987l1.014,4.25a6.419,6.419,0,0,0,7.228-3.852,7.6,7.6,0,0,0,.424-5.135,2.735,2.735,0,0,1,2.4-3.492l1.412-.141a12.223,12.223,0,0,0,5.135-1.862h0l-.5-6.676" transform="translate(18.387 1.263)"/><path d="M126.429,39.592s-.668-3.582-3.325-2.85-1.708,5.906,2.041,5.777Z" transform="translate(20.341 4.364)" fill="#f4a28c"/><path d="M128.24,46.867a11.555,11.555,0,0,1-5.546-2.747s-1.194,6.689,6.946,8.987Z" transform="translate(20.636 6.487)" fill="#ce8172" opacity="0.31"/><path d="M104.809,64.793S149.18,51.466,194.4,70.275s-23.482,139.711-23.482,139.711H101.638S37.419,78.4,104.809,64.793Z" transform="translate(6.834 11.055)" fill="#e6f3ff"/><path d="M131.975,39.18h8.011L136.6,50.542l-13.827-7.7V41.824l4.288,2.272a1.643,1.643,0,0,0,2.427-1.489h0a4.3,4.3,0,0,0-2.439-3.685l-1.284-.642-1.078-1.361,2.709,1.284A11.247,11.247,0,0,0,131.975,39.18Z" transform="translate(20.675 4.443)" fill="#1894ff"/><path d="M112.263,87.3H128.71l7.844,47.914H115.268s-8.884,39.453,21.826,67.082H100.875s-18.95-46.052-22.506-62.473L76.7,104.247Z" transform="translate(7.597 18.744)" fill="#2361b5" opacity="0.08"/><path d="M117.48,60.8l8.332,15.406,7.806-15.792a38.606,38.606,0,0,0-16.138.385Z" transform="translate(19.173 10.923)" fill="#f4a28c"/><path d="M70.46,77.82h40.583l6,47.041H77.033Z" transform="translate(5.826 16.053)" fill="#1894ff"/><path d="M81.183,98.7a12.377,12.377,0,0,1,9.719,8.987c2.465,8.178,23.007,3.454,23.007,3.454l.989,7.793-36.757-.116Z" transform="translate(8.006 21.98)" opacity="0.08"/><path d="M79.42,75.05l1.8,7.1H96.072l-1.361-7.1Z" transform="translate(8.369 15.267)" fill="#2361b5"/><path d="M73.688,114.049s-6.2-11.94,2.863-16.241,11.028,11.837,3.4,21.466Z" transform="translate(6.155 21.524)" fill="#f4a28c"/><path d="M120.209,43.956s5.559-7.074,17.974-8.807c0,0,4.827-6.984-1.387-11.9s-20.978.077-24.394,6.843C110.49,33.891,109.194,44.033,120.209,43.956Z" transform="translate(17.369)" fill="#2361b5"/><path d="M77.342,108.42S44.1,176.465,67.264,183.95,85.02,114.839,85.02,114.839Z" transform="translate(2.59 24.74)" fill="#f4a28c"/><path d="M150.915,82c6.188-12.839,23.11-15.984,34-6.74,15.278,13.044,43.421,49.249,48.556,83.85,8.14,54.783-69.753,59.918-69.753,59.918l-2.568-11.979s51.1-12.839,36.462-48.787C185.9,129.5,140.425,103.746,150.915,82Z" transform="translate(28.222 13.815)" fill="#f4a28c"/><path d="M151.582,78.22s13.481-16.472,30.607-6.638S221.72,117.6,221.72,117.6L183.9,144.9S128.909,97.9,151.582,78.22Z" transform="translate(27.298 13.394)" fill="#1894ff"/><path d="M151.762,78.541s13.924-17.014,31.614-6.856,40.83,47.527,40.83,47.527L185.14,147.418S128.344,98.87,151.762,78.541Z" transform="translate(26.055 12.137)" fill="#e6f3ff"/><path d="M164.769,176.87H95.53L107.1,278.964h13.057l11.5-82.707,43.061,82.707h12.839Z" transform="translate(12.943 44.171)" fill="#e6f3ff"/><path d="M162.346,176.73s-22.686,5.058-15.971,14.046,18.539-2.067,18.539-2.067Z" transform="translate(27.023 44.131)" fill="#f4a28c"/><path d="M110.7,83.186c-.116-.757-2.568-18.629,8.987-23.906v1.643c-10.6,4.866-7.7,21.826-7.7,22.057Z" transform="translate(17.164 10.79)" fill="#1894ff"/><path d="M136.927,98.763l-1.284-.27c6.7-32.623-5.675-37.9-5.8-37.951V59.13C130.431,59.335,143.86,65.049,136.927,98.763Z" transform="translate(22.682 10.748)" fill="#1894ff"/><path d="M145.346,108.687l-2.5-.616c0-.09,2.131-8.987-1.066-13.4a5.739,5.739,0,0,0-4.519-2.337,6.009,6.009,0,0,0-4.879,1.6c-4.031,3.852-3.659,13.121-3.659,13.211l-2.568.116c0-.424-.424-10.438,4.429-15.163a8.6,8.6,0,0,1,6.933-2.337,8.307,8.307,0,0,1,6.419,3.389C147.785,98.506,145.436,108.263,145.346,108.687Z" transform="translate(21.633 19.427)" fill="#1894ff"/><circle cx="2.414" cy="2.414" r="2.414" transform="translate(156.887 107.906)" fill="#2361b5"/><circle cx="4.648" cy="4.648" r="4.648" transform="translate(124.084 90.022)" fill="#1894ff"/><circle cx="2.645" cy="2.645" r="2.645" transform="translate(126.087 92.024)" fill="#2361b5"/><path d="M131.223,116.832c-5.456-2.722-4.648-15.175-4.609-15.7l1.284.09c0,.128-.8,12.12,3.852,14.469Z" transform="translate(21.748 22.67)" fill="#1894ff"/><circle cx="2.157" cy="2.157" r="2.157" transform="translate(151.559 136.472)" fill="#2361b5"/><path d="M135.771,116.5l-.411-1.207c4.981-1.656,5.919-13.648,5.931-13.776l1.284.1C142.524,102.136,141.561,114.59,135.771,116.5Z" transform="translate(24.249 22.781)" fill="#1894ff"/><circle cx="2.157" cy="2.157" r="2.157" transform="translate(157.26 136.164)" fill="#2361b5"/></g></g></svg>