<?xml version="1.0" encoding="utf-8"?>
<!-- Generator: Adobe Illustrator 24.1.2, SVG Export Plug-In . SVG Version: 6.00 Build 0)  -->
<svg version="1.1" id="Layer_1" xmlns="http://www.w3.org/2000/svg" xmlns:xlink="http://www.w3.org/1999/xlink" x="0px" y="0px"
	 viewBox="0 0 48.6 70" style="enable-background:new 0 0 48.6 70;" xml:space="preserve">
<style type="text/css">
	.st0{fill:#2361B5;}
	.st1{fill:#FFFFFF;}
	.st2{fill:#00DE9A;}
	.st3{fill:#1894FF;}
</style>
<g transform="translate(-78.367)">
	<rect x="82.7" class="st0" width="40" height="70"/>
	<rect x="86.9" y="10.7" class="st1" width="31.4" height="49.3"/>
	<g transform="translate(92.653 47.143)">
		<rect x="0" y="0" class="st2" width="4.3" height="4.3"/>
		<rect x="7.1" y="0" class="st2" width="12.9" height="4.3"/>
	</g>
	<g transform="translate(78.367 9.381)">
		<path class="st0" d="M32.4,14.6c-0.1,4.5-3.9,8-8.4,7.8c-4.3-0.1-7.7-3.6-7.8-7.8"/>
		<path class="st3" d="M16.2,14.6L19.4,0h-13L0,14.6C-0.2,19,3.3,22.8,7.8,23c4.5,0.2,8.2-3.3,8.4-7.8C16.2,15,16.2,14.8,16.2,14.6"
			/>
	</g>
	<path class="st0" d="M94.6,24H78.4c0.2,4.5,3.9,8,8.4,7.8C91,31.6,94.4,28.2,94.6,24"/>
	<path class="st3" d="M110.7,24l-3.2-14.6h13l6.5,14.6c0.2,4.5-3.3,8.2-7.8,8.4c-4.5,0.2-8.2-3.3-8.4-7.8
		C110.7,24.3,110.7,24.1,110.7,24"/>
	<path class="st0" d="M110.7,24h16.2c0.2,4.5-3.3,8.2-7.8,8.4c-4.5,0.2-8.2-3.3-8.4-7.8C110.7,24.3,110.7,24.1,110.7,24"/>
	<path class="st1" d="M94.6,24l3.2-14.6h9.7l3.2,14.6"/>
</g>
</svg>
