<?xml version="1.0" encoding="utf-8"?>
<!-- Generator: Adobe Illustrator 24.1.2, SVG Export Plug-In . SVG Version: 6.00 Build 0)  -->
<svg version="1.1" id="Layer_1" xmlns="http://www.w3.org/2000/svg" xmlns:xlink="http://www.w3.org/1999/xlink" x="0px" y="0px"
	 viewBox="0 0 56.2 70.2" style="enable-background:new 0 0 56.2 70.2;" xml:space="preserve">
<style type="text/css">
	.st0{fill:#00DE9A;}
	.st1{fill:#2361B5;}
	.st2{fill:#1894FF;}
	.st3{fill:#FFFFFF;}
</style>
<g transform="translate(-45.98)">
	<path class="st0" d="M76.2,0H66v6.1h4.1v12.2h6.1L76.2,0z"/>
	<path class="st0" d="M53.6,6.1h4.1V0H47.5v18.3h6.1V6.1z"/>
	<path class="st1" d="M89.9,27.1v24.5c0,6.9-5.6,12.5-12.5,12.5c-6.9,0-12.5-5.6-12.5-12.5v-6.8c7.4-1.5,12.8-8,12.8-15.6V18.3h-9.2
		v10.9c0,3.7-3,6.7-6.7,6.7v9.2c-1,0-2-0.1-3.1-0.3v6.8c0,10.3,8.3,18.6,18.6,18.6s18.6-8.3,18.6-18.6V27.1
		C94.1,27.8,91.9,27.8,89.9,27.1L89.9,27.1z"/>
	<path class="st2" d="M93,21.5c-1.7,0-3-1.4-3-3.1c0-1.6,1.4-3,3-3V9.3c-5.1,0-9.2,4.1-9.2,9.2c0,5.1,4.1,9.2,9.2,9.2V21.5z"/>
	<path class="st1" d="M102.2,18.5c0-5.1-4.1-9.2-9.2-9.2v6.1c1.7,0,3.1,1.3,3.1,3c0,1.7-1.3,3.1-3,3.1c0,0-0.1,0-0.1,0v6.1
		C98.1,27.6,102.2,23.5,102.2,18.5L102.2,18.5z"/>
	<path class="st3" d="M89.9,18.5c0,1.7,1.4,3.1,3.1,3.1c1.7,0,3.1-1.4,3.1-3.1c0-1.7-1.4-3.1-3.1-3.1c0,0,0,0,0,0
		C91.3,15.4,89.9,16.8,89.9,18.5z"/>
	<path class="st2" d="M61.9,35.9c-3.7,0-6.7-3-6.7-6.7V18.3H46v10.9c0,8.8,7.1,15.9,15.9,15.9c0,0,0,0,0,0V35.9z"/>
</g>
</svg>
