<?xml version="1.0" encoding="utf-8"?>
<!-- Generator: Adobe Illustrator 24.1.2, SVG Export Plug-In . SVG Version: 6.00 Build 0)  -->
<svg version="1.1" id="Layer_1" xmlns="http://www.w3.org/2000/svg" xmlns:xlink="http://www.w3.org/1999/xlink" x="0px" y="0px"
	 viewBox="0 0 67.6 58.2" style="enable-background:new 0 0 67.6 58.2;" xml:space="preserve">
<style type="text/css">
	.st0{clip-path:url(#SVGID_2_);}
	.st1{fill:#2361B5;}
	.st2{fill:#1894FF;}
	.st3{fill:#FFFFFF;}
	.st4{fill:none;}
	.st5{fill:#00DE9A;}
</style>
<g>
	<defs>
		<rect id="SVGID_1_" width="67.6" height="58.2"/>
	</defs>
	<clipPath id="SVGID_2_">
		<use xlink:href="#SVGID_1_"  style="overflow:visible;"/>
	</clipPath>
	<g id="Repeat_Grid_1" class="st0">
		<g id="Group_4137">
			<path id="Path_9717" class="st1" d="M2.3,15.4h63.1v42.8H2.3V15.4z"/>
			<path id="Path_9718" class="st2" d="M2.3,15.4H62v42.8H2.3V15.4z"/>
			<path id="Path_9719" class="st2" d="M2.3,47H9v11.3H2.3V47z"/>
			<path id="Path_9720" class="st1" d="M9,47h6.8v11.3H9V47z"/>
			<path id="Path_9721" class="st2" d="M15.8,47h6.8v11.3h-6.8V47z"/>
			<path id="Path_9722" class="st2" d="M45.1,47h6.8v11.3h-6.8V47z"/>
			<path id="Path_9723" class="st1" d="M51.8,47h6.8v11.3h-6.8V47z"/>
			<path id="Path_9724" class="st2" d="M58.6,47h6.8v11.3h-6.8V47z"/>
			<path id="Path_9725" class="st1" d="M33.8,38h11.3v20.3H33.8V38z"/>
			<path id="Path_9726" class="st3" d="M33.8,38h7.9v20.3h-7.9V38z"/>
			<path id="Path_9727" class="st1" d="M22.5,38h11.3v20.3H22.5V38z"/>
			<path id="Path_9728" class="st3" d="M22.5,38h7.9v20.3h-7.9V38z"/>
			<path id="Path_9729" class="st4" d="M33.8,19.9h22.5v11.3H33.8V19.9z"/>
			<path id="Path_9730" class="st3" d="M33.8,19.9H53v11.3H33.8V19.9z"/>
			<path id="Path_9731" class="st1" d="M11.3,19.9h22.5v11.3H11.3V19.9z"/>
			<path id="Path_9732" class="st3" d="M11.3,19.9h19.2v11.3H11.3V19.9z"/>
			<g id="Group_4135">
				<path id="Path_9733" class="st1" d="M0,0h67.6v15.8H0V0z"/>
				<path id="Path_9734" class="st2" d="M0,0h63.1v15.8H0V0z"/>
			</g>
			<g id="Group_4136" transform="translate(28.169 2.258)">
				<path id="Path_9735" class="st1" d="M0.8,6L6,0.8c1.1-1.1,2.8-1.1,3.8,0c0,0,0,0,0,0l0.7,0.7c1.1,1.1,1.1,2.8,0,3.8c0,0,0,0,0,0
					l-5.2,5.2c-1.1,1.1-2.8,1.1-3.8,0c0,0,0,0,0,0L0.8,9.8C-0.3,8.7-0.3,7,0.8,6C0.8,6,0.8,6,0.8,6L0.8,6z"/>
				<path id="Path_9736" class="st3" d="M7.9,7.9l-2.6,2.6c-1.1,1.1-2.8,1.1-3.8,0c0,0,0,0,0,0L0.8,9.8C-0.3,8.7-0.3,7,0.8,6
					c0,0,0,0,0,0l2.6-2.6L7.9,7.9z"/>
			</g>
			<g id="Group_4134" transform="translate(12.955 22.507)">
				<path id="Path_9737" class="st5" d="M13.4,23.3h2.3v4.5h-2.3V23.3z"/>
				<path id="Path_9738" class="st5" d="M22.5,23.3h2.3v4.5h-2.3V23.3z"/>
				<path id="Path_9739" class="st5" d="M0,4.5L4.5,0l1.6,1.6L1.6,6.1L0,4.5z"/>
				<path id="Path_9740" class="st5" d="M9.2,4.5L13.7,0l1.6,1.6l-4.5,4.5L9.2,4.5z"/>
				<path id="Path_9741" class="st5" d="M22.9,4.5L27.4,0L29,1.6l-4.5,4.5L22.9,4.5z"/>
				<path id="Path_9742" class="st5" d="M32.1,4.5L36.6,0l1.6,1.6l-4.5,4.5L32.1,4.5z"/>
			</g>
		</g>
	</g>
</g>
</svg>
