<svg xmlns="http://www.w3.org/2000/svg" width="406.553" height="315.332" viewBox="0 0 406.553 315.332">
  <g id="Group_5545" data-name="Group 5545" transform="translate(9422.552 -10064.044)">
    <g id="health__two_color_1_" data-name="health__two_color (1)" transform="translate(-9516.84 10021.351)">
      <path id="Path_14311" data-name="Path 14311" d="M296.616,104.23s-36.629,8.552-44.446,48-8.409,74.1-29.924,75.3-37.06-81.273-37.06-81.273l-16.136,4.178s16.71,179.292,103.989,95.616S296.616,104.23,296.616,104.23Z" transform="translate(59.635 48.793)" fill="#f4a28c"/>
      <path id="Path_14312" data-name="Path 14312" d="M270.24,103.54S209.693,109.582,206,211.223l53.375,31.555Z" transform="translate(88.934 48.246)" fill="#1894ff"/>
      <path id="Path_14313" data-name="Path 14313" d="M271.092,103.54S209.742,109.582,206,211.223l54.083,31.555Z" transform="translate(88.082 48.246)" fill="#e6f3ff"/>
      <path id="Path_14314" data-name="Path 14314" d="M260.466,76.3s-2.564,12.3-1.452,20.816a6.329,6.329,0,0,0,7.172,5.379c4.285-.628,9.9-2.707,12.066-9.126l5.02-10.471a11.259,11.259,0,0,0-3.586-12.55C273.267,64.506,261.649,68.737,260.466,76.3Z" transform="translate(130.748 19.759)" fill="#f4a28c"/>
      <path id="Path_14315" data-name="Path 14315" d="M281.213,77.23l1.632,41.147-22.734-.717,7.943-29.655Z" transform="translate(131.839 27.385)" fill="#f4a28c"/>
      <path id="Path_14316" data-name="Path 14316" d="M255.9,65.129c-.569,4.572,2.445,10.734,7.127,14.468s7.728.754,11.6.466a10.489,10.489,0,0,0-1.345,11.421,8.5,8.5,0,0,0,9.825,4.59L284.9,79.937a12.837,12.837,0,0,0-5.092-12.1c-1.616-1.187-4.847-4.326-10.947-4.326" transform="translate(131.212 17.362)"/>
      <path id="Path_14317" data-name="Path 14317" d="M266.39,81.109s.663-4.805,4.231-4,2.636,7.727-2.349,7.8Z" transform="translate(136.818 27.217)" fill="#f4a28c"/>
      <path id="Path_14318" data-name="Path 14318" d="M261.02,76.83l-4.034,4.393a2.008,2.008,0,0,0,.879,3.281l4.662,1.47Z" transform="translate(128.938 27.067)" fill="#f4a28c"/>
      <path id="Path_14319" data-name="Path 14319" d="M264.546,88.366a14.935,14.935,0,0,0,7.817-3.5s-1.219,7.4-10.363,13.859Z" transform="translate(133.337 33.442)" fill="#ce8172" opacity="0.31"/>
      <path id="Path_14320" data-name="Path 14320" d="M311.626,100.5l-22.734-.717s-60.959.95-64.706,45.361,22.2,79.05,13.537,113.707l82.672,10.542S455.92,133.218,311.626,100.5Z" transform="translate(103.057 45.265)" fill="#e6f3ff"/>
      <path id="Path_14321" data-name="Path 14321" d="M316.311,116.9s-27.97,22.376-9.359,62.519,7.172,52.873-20.762,45.468-39.139-37.651-39.139-37.651l-13.7,42.438a56.333,56.333,0,0,1-1.793,15.545l82.671,10.542,2.994-3.138L354.662,200Z" transform="translate(109.201 58.84)" fill="#1894ff" opacity="0.08"/>
      <rect id="Rectangle_1945" data-name="Rectangle 1945" width="57.069" height="82.94" transform="translate(296.161 213.623) rotate(-6.62)" fill="#1894ff"/>
      <path id="Path_14322" data-name="Path 14322" d="M231.344,161.291s-15.186,7.064-1.793,19.561,9.718,20.654,9.718,20.654l19.9-2.313-1.578-13.5L237.512,156.45Z" transform="translate(103.231 90.2)" opacity="0.08"/>
      <rect id="Rectangle_1946" data-name="Rectangle 1946" width="29.709" height="11.636" transform="translate(308.421 206.346) rotate(-6.62)" fill="#ffd200"/>
      <rect id="Rectangle_1947" data-name="Rectangle 1947" width="29.709" height="11.636" transform="translate(308.421 206.346) rotate(-6.62)" fill="#2361b5"/>
      <path id="Path_14323" data-name="Path 14323" d="M310.483,152.191c-14.038-27.091,18.754-54.254,43.03-35.715,12.73,9.736,24.706,23.81,28.507,43.532,9.216,47.656,3.8,90.435-28.687,102.878s-117.544-49.2-117.544-49.2l10.758-17.929s74.191,53.07,92.048,16.8C349.927,189.7,322.567,175.571,310.483,152.191Z" transform="translate(112.555 53.67)" fill="#f4a28c"/>
      <path id="Path_14325" data-name="Path 14325" d="M232.8,188.5l-2.779,53.913h98.27L315.47,199.042Z" transform="translate(107.98 115.613)" fill="#e6f3ff"/>
      <path id="Path_14327" data-name="Path 14327" d="M258.316,85.054s-2.385,10.166,5.253,11.224,14.5-13.447,14.5-13.447-6.4.968-4.2-4.841C273.878,78.008,265.2,84.14,258.316,85.054Z" transform="translate(130.137 27.987)" fill="#1894ff"/>
      <path id="Path_14328" data-name="Path 14328" d="M318.138,112.494S361.526,123.5,358.156,212H305.982s-.126-12.013-12.21-25.944C272.723,161.8,252.84,94.511,318.138,112.494Z" transform="translate(142.498 52.954)" fill="#1894ff"/>
      <path id="Path_14329" data-name="Path 14329" d="M318.531,112.521S362.3,123.626,358.9,212.906H306.268s-.127-12.119-12.318-26.173C272.716,162.261,252.657,94.379,318.531,112.521Z" transform="translate(141.749 52.049)" fill="#e6f3ff"/>
      <path id="Path_14330" data-name="Path 14330" d="M252.708,166.656s-8.66-19.256-15.061-19.561-9.162,5.5-7.943,13.124-9.5,13.519,12.174,24.312Z" transform="translate(106.466 82.773)" fill="#f4a28c"/>
      <path id="Path_14331" data-name="Path 14331" d="M177.269,147.423l16.3-7.459s6.15-18.808,0-19.417-10.847,6.114-17.5,3.353-22.214-1.237-13.052,10.058S177.269,147.423,177.269,147.423Z" transform="translate(52.618 61.701)" fill="#f4a28c"/>
      <rect id="Rectangle_1948" data-name="Rectangle 1948" width="25.621" height="38.637" transform="translate(218.053 149.348)" fill="#1894ff"/>
      <rect id="Rectangle_1949" data-name="Rectangle 1949" width="32.47" height="9.789" rx="2.73" transform="translate(245.536 97.645) rotate(60.37)" fill="#1894ff"/>
      <rect id="Rectangle_1950" data-name="Rectangle 1950" width="32.47" height="9.789" rx="2.73" transform="translate(245.536 97.645) rotate(60.37)" fill="#00de9a" opacity="0.13"/>
      <rect id="Rectangle_1952" data-name="Rectangle 1952" width="25.621" height="16.441" transform="translate(218.053 163.602)" fill="#2361b5" opacity="0.46"/>
      <rect id="Rectangle_1953" data-name="Rectangle 1953" width="7.727" height="21.103" transform="translate(135.848 162.244)" fill="#00de9a"/>
      <rect id="Rectangle_1954" data-name="Rectangle 1954" width="7.727" height="21.103" transform="translate(150.281 168.932) rotate(90)" fill="#00de9a"/>
      <path id="Path_14333" data-name="Path 14333" d="M235.793,143.259s13.734-9.431-3.586-17.176S234,99.566,218.025,88.575s-39.839.95-48.068-21.031-45.666-23.792-59.453,0-20.278,63.075,12.228,58.539,72.326-12.335,70.5,9.646,20.583,7.53,20.583,7.53Z" transform="translate(4.242 6.089)" fill="#e6f3ff"/>
      <path id="Path_14334" data-name="Path 14334" d="M9.108,0h0a9.108,9.108,0,0,1,9.108,9.108V21.443H0V9.108A9.108,9.108,0,0,1,9.108,0Z" transform="translate(163.473 86.166) rotate(-135.79)" fill="#2361b5"/>
      <path id="Path_14335" data-name="Path 14335" d="M0,0H18.234V12.335a9.108,9.108,0,0,1-9.108,9.108h0A9.108,9.108,0,0,1,.018,12.335V0Z" transform="translate(178.437 70.778) rotate(-135.79)" fill="#00de9a"/>
      <circle id="Ellipse_56" data-name="Ellipse 56" cx="15.975" cy="15.975" r="15.975" transform="translate(96.063 67.663)" fill="#2361b5"/>
      <circle id="Ellipse_57" data-name="Ellipse 57" cx="15.975" cy="15.975" r="15.975" transform="translate(94.288 63.503)" fill="#1894ff"/>
      <path id="Path_14336" data-name="Path 14336" d="M114.911,65.146,101.464,70.92a2.869,2.869,0,0,1-2.259-5.271l13.447-5.755a2.859,2.859,0,0,1,2.259,5.253Z" transform="translate(2.936 13.453)" fill="#fff"/>
      <rect id="Rectangle_1958" data-name="Rectangle 1958" width="23.047" height="48.615" rx="6.432" transform="translate(160.03 98.42) rotate(21.161)" fill="#2361b5"/>
      <rect id="Rectangle_1959" data-name="Rectangle 1959" width="23.111" height="48.749" rx="6.45" transform="translate(164.742 100.895) rotate(21.22)" fill="#1894ff"/>
      <rect id="Rectangle_1960" data-name="Rectangle 1960" width="17.158" height="4.357" rx="1.21" transform="translate(159.483 122.664) rotate(21.22)" fill="#fff"/>
    </g>
  </g>
</svg>
