<svg xmlns="http://www.w3.org/2000/svg" width="26.828" height="36.929" viewBox="0 0 26.828 36.929"><g transform="translate(-783.77 -2547.925)"><path d="M120.074,29.615a9.8,9.8,0,0,1,2.093,11.568c5.036-8.59,3.132-15.345,3.132-15.345-10.936-5.6-17.078-.827-17.078-.827a17.478,17.478,0,0,1,11.854,4.6Z" transform="translate(682.252 2534.358)" fill="#fff"/><path d="M109.464,30.745a9.18,9.18,0,0,1,11.273-2.151c-8.37-5.17-14.945-3.226-14.945-3.226-5.4,11.237-.81,17.538-.81,17.538a18.466,18.466,0,0,1,4.482-12.16Z" transform="translate(680.607 2535.076)" fill="#fff"/><path d="M110.715,41.424a9.8,9.8,0,0,1-2.106-11.554c-5.009,8.576-3.119,15.345-3.119,15.345,10.936,5.6,17.065.827,17.065.827a17.452,17.452,0,0,1-11.84-4.619Z" transform="translate(681.252 2536.917)" fill="#fff"/><path d="M125.885,28.07a18.438,18.438,0,0,1-4.5,12.16,9.167,9.167,0,0,1-11.26,2.151c8.357,5.17,14.945,3.212,14.945,3.212C130.53,34.371,125.885,28.07,125.885,28.07Z" transform="translate(682.869 2536.235)" fill="#fff"/><path d="M121.08,16.19c-7.817.152-8.33,7.128-8.33,7.128C120.607,23.994,121.08,16.19,121.08,16.19Z" transform="translate(683.859 2531.735)" fill="#fff"/></g></svg>