<svg xmlns="http://www.w3.org/2000/svg" width="36" height="35.648" viewBox="0 0 36 35.648">
  <g id="Group_5545" data-name="Group 5545" transform="translate(-420.5 -1105)">
    <g id="Group_5331" data-name="Group 5331" transform="translate(-35.5 -82)">
      <g id="Group_5191" data-name="Group 5191" transform="translate(-166 318)">
        <path id="Subtraction_250" data-name="Subtraction 250" d="M7.2,35.648V28.8H3.6A3.6,3.6,0,0,1,0,25.2V3.6A3.6,3.6,0,0,1,3.6,0H32.4A3.6,3.6,0,0,1,36,3.6V25.2a3.6,3.6,0,0,1-3.6,3.6H18.157L7.2,35.647ZM3.6,3.6V25.2h7.2v3.951L17.124,25.2H32.4V3.6Z" transform="translate(622 869)" fill="#1894ff"/>
        <path id="Path" d="M6.673,7.727,14.4,0l2.546,2.546L6.673,12.819,0,6.146,2.546,3.6Z" transform="translate(631.527 876.727)" fill="#00de9a"/>
      </g>
    </g>
  </g>
</svg>
