<svg xmlns="http://www.w3.org/2000/svg" width="24" height="28.807" viewBox="0 0 24 28.807"><g transform="translate(-42.727)"><g transform="translate(42.727 0)"><path d="M44.571,170.787a1.844,1.844,0,0,0-1.844,1.844v8.6a1.844,1.844,0,0,0,3.688,0v-8.6A1.844,1.844,0,0,0,44.571,170.787Z" transform="translate(-42.727 -161.347)" fill="#fff"/><path d="M407.237,170.787a1.844,1.844,0,0,0-1.844,1.844v8.6a1.844,1.844,0,1,0,3.688,0v-8.6A1.844,1.844,0,0,0,407.237,170.787Z" transform="translate(-385.081 -161.347)" fill="#fff"/><path d="M141.636,170.787H128.65a.6.6,0,0,0-.59.615v9.834a3.045,3.045,0,0,0,2.361,3.012v4.364a1.772,1.772,0,1,0,3.542,0v-4.3h2.361v4.3a1.772,1.772,0,1,0,3.542,0v-4.364a3.045,3.045,0,0,0,2.361-3.012V171.4A.6.6,0,0,0,141.636,170.787Z" transform="translate(-123.143 -161.647)" fill="#fff"/><path d="M139.433,2.554l1.439-1.5a.633.633,0,0,0,.014-.869.574.574,0,0,0-.835-.015l-.014.015-1.676,1.746a7.786,7.786,0,0,0-6.437,0L130.247.186a.574.574,0,0,0-.835.015.633.633,0,0,0,0,.854l1.438,1.5A6.562,6.562,0,0,0,128.059,8a.6.6,0,0,0,.59.615h12.986a.6.6,0,0,0,.59-.615A6.562,6.562,0,0,0,139.433,2.554Z" transform="translate(-123.142 0)" fill="#fff"/></g><g transform="translate(51.039 4.802)"><circle cx="0.615" cy="0.615" r="0.615" transform="translate(0)" fill="#2361b5"/><circle cx="0.615" cy="0.615" r="0.615" transform="translate(6.146)" fill="#2361b5"/></g></g></svg>