<svg xmlns="http://www.w3.org/2000/svg" width="50.632" height="34.795" viewBox="0 0 50.632 34.795"><g transform="translate(-940.138 -2548.724)"><path d="M70.38,8.86V25.2a6.35,6.35,0,0,0,1.14,3.15,4.49,4.49,0,0,0,.33.39,3.789,3.789,0,0,0,.31.39,7.08,7.08,0,0,0,1.66,1.17,5.94,5.94,0,0,0,2.3.56h6a2.92,2.92,0,0,0,2-.83,3.24,3.24,0,0,0-.69-5.1c-1.22-.71-5.85-.06-6.6-.4a.87.87,0,0,1-.52-.54c-.13-.41,0-11.61,0-12.59,0-2,.21-3.76-1.4-4.86A2.92,2.92,0,0,0,70.7,7.67a2.86,2.86,0,0,0-.32,1.19Z" transform="translate(905.706 2545.963)" fill="#fff" fill-rule="evenodd"/><path d="M52.67,30.57a3.13,3.13,0,0,0,1.06,2.67,3.4,3.4,0,0,0,2.4.74H61c3.87,0,6.43-2.68,6.43-6.75V19a3.55,3.55,0,0,0-.76-2.54,2.85,2.85,0,0,0-4.31-.18c-.92,1-.87,1.62-.87,2.87v6.89c0,1.4-.26,1.76-1.59,1.75H56.62c-1.4,0-1.92-.07-2.76.59a3,3,0,0,0-1.19,2.24Z" transform="translate(905.438 2546.247)" fill="#fff" fill-rule="evenodd"/><path d="M35,24.32a3.14,3.14,0,0,0,1.66,3.13,2.52,2.52,0,0,0,1.17.29H44.2c2.85,0,5.6-2.86,5.6-6.25V12.34a3.33,3.33,0,0,0-.81-2.2,2.88,2.88,0,0,0-4.44.1c-.65.87-.7,1.19-.7,2.68v6.9c0,.69,0,1-.29,1.37s-.64.3-1.37.3H38.84c-1.53,0-2.66.17-3.45,1.53a3.38,3.38,0,0,0-.42,1.3Z" transform="translate(905.168 2545.977)" fill="#fff" fill-rule="evenodd"/><path d="M52.67,5.81v16a2.94,2.94,0,0,0,5.12,1.89,3.48,3.48,0,0,0,.83-2.47V6.31A3.38,3.38,0,0,0,57.84,4a2.94,2.94,0,0,0-5.17,1.8Z" transform="translate(905.379 2545.751)" fill="#fff" fill-rule="evenodd"/><path d="M67.4,33.76a3,3,0,0,0,3,3.27c3.2,0,3.9-4.66,1.21-5.92a3,3,0,0,0-4.26,2.65Z" transform="translate(905.591 2546.489)" fill="#fff" fill-rule="evenodd"/><path d="M61.53,9a3.11,3.11,0,0,0,.84,2.38,3,3,0,0,0,5.08-2.23A3.12,3.12,0,0,0,64.5,6a3.06,3.06,0,0,0-3,3Z" transform="translate(905.507 2545.696)" fill="#fff" fill-rule="evenodd"/></g></svg>