<?xml version="1.0" encoding="utf-8"?>
<!-- Generator: Adobe Illustrator 24.1.2, SVG Export Plug-In . SVG Version: 6.00 Build 0)  -->
<svg version="1.1" id="Layer_1" xmlns="http://www.w3.org/2000/svg" xmlns:xlink="http://www.w3.org/1999/xlink" x="0px" y="0px"
	 viewBox="0 0 64.2 62.9" style="enable-background:new 0 0 64.2 62.9;" xml:space="preserve">
<style type="text/css">
	.st0{fill:#1894FF;}
	.st1{fill:#2361B5;}
	.st2{fill:#FFFFFF;}
	.st3{fill:#00DE9A;}
</style>
<g transform="translate(-162.365 -733.524)">
	<g transform="translate(162.365 733.524)">
		<g transform="translate(0 10.625)">
			<path class="st0" d="M0,0h52.8v41.5H0V0z"/>
		</g>
		<g transform="translate(26.426 10.625)">
			<path class="st1" d="M0,0h26.4v41.5H0V0z"/>
		</g>
		<g transform="translate(0 4.232)">
			<path class="st0" d="M0,0h26.5v9.5H0V0z"/>
		</g>
		<g transform="translate(26.426 4.232)">
			<path class="st1" d="M0,0h26.4v9.5H0V0z"/>
		</g>
		<g transform="translate(5.965 17.893)">
			<path class="st2" d="M0,0h7.3v7.3H0V0z"/>
			<g transform="translate(0 21.538)">
				<path class="st2" d="M0,0h7.3v7.3H0V0z"/>
			</g>
			<g transform="translate(0 10.769)">
				<path class="st2" d="M0,0h7.3v7.3H0V0z"/>
			</g>
			<g transform="translate(11.202)">
				<path class="st2" d="M0,0h7.3v7.3H0V0z"/>
				<g transform="translate(0 21.538)">
					<path class="st2" d="M0,0h7.3v7.3H0V0z"/>
				</g>
				<g transform="translate(0 10.769)">
					<path class="st2" d="M0,0h7.3v7.3H0V0z"/>
				</g>
			</g>
			<g transform="translate(22.403)">
				<path class="st2" d="M0,0h7.3v7.3H0V0z"/>
				<g transform="translate(0 21.538)">
					<path class="st2" d="M0,0h7.3v7.3H0V0z"/>
				</g>
				<g transform="translate(0 10.769)">
					<path class="st2" d="M0,0h7.3v7.3H0V0z"/>
				</g>
			</g>
			<g transform="translate(33.605)">
				<path class="st2" d="M0,0h7.3v7.3H0V0z"/>
				<g transform="translate(0 21.538)">
					<path class="st2" d="M0,0h7.3v7.3H0V0z"/>
				</g>
				<g transform="translate(0 10.769)">
					<path class="st2" d="M0,0h7.3v7.3H0V0z"/>
				</g>
			</g>
		</g>
		<g transform="translate(5.965 0)">
			<path class="st1" d="M0,0h6.2v9H0L0,0z"/>
		</g>
		<g transform="translate(40.613 0)">
			<path class="st0" d="M0,0h6.2v9H0V0z"/>
		</g>
		<g transform="translate(23.289 0)">
			<path class="st1" d="M0,0h6.2v9H0V0z"/>
		</g>
		<g transform="translate(26.426 0)">
			<path class="st0" d="M0,0h3.1v9H0V0z"/>
		</g>
	</g>
	<g transform="translate(203.354 773.248)">
		<path class="st1" d="M11.6,0L5.8,11.6l5.8,11.6c6.4,0,11.6-5.2,11.6-11.6C23.2,5.2,18,0,11.6,0z"/>
		<path class="st0" d="M0,11.6C0,18,5.2,23.2,11.6,23.2V0C5.2,0,0,5.2,0,11.6z"/>
		<path class="st2" d="M11.6,2.7l-4.4,8.9l4.4,8.9c4.9,0,8.9-4,8.9-8.9S16.5,2.7,11.6,2.7L11.6,2.7z"/>
		<path class="st2" d="M2.7,11.6c0,4.9,4,8.9,8.9,8.9l0,0V2.7C6.7,2.7,2.7,6.7,2.7,11.6L2.7,11.6z"/>
		<path class="st3" d="M13.5,12.6l-1.9-1.9h-0.9l0.9,1.9l1,1L13.5,12.6z"/>
		<path class="st3" d="M7.7,6.8l-1,1l4.8,4.8v-1.9L7.7,6.8z"/>
		<path class="st3" d="M15.5,6.8l-3.9,3.9l-0.9,1.9h0.9l4.8-4.8L15.5,6.8z"/>
		<path class="st3" d="M9.7,12.6l1,1l1-1v-1.9L9.7,12.6z"/>
		<path class="st2" d="M12.3,4.1h-0.7l-0.5,0.7l0.5,0.7h0.7V4.1z"/>
		<path class="st2" d="M10.9,4.1h0.7v1.4h-0.7V4.1z"/>
		<path class="st2" d="M12.3,17.7h-0.7l-0.5,0.7l0.5,0.7h0.7V17.7z"/>
		<path class="st2" d="M10.9,17.7h0.7v1.4h-0.7V17.7z"/>
		<path class="st2" d="M4.1,12.3v-1.4h1.4v1.4H4.1z"/>
		<path class="st2" d="M17.7,12.3v-1.4h1.4v1.4H17.7z"/>
	</g>
</g>
</svg>
