<svg xmlns="http://www.w3.org/2000/svg" width="102.876" height="160.845" viewBox="0 0 102.876 160.845">
  <g id="Group_5545" data-name="Group 5545" transform="translate(-311 -1209)">
    <g id="Group_5537" data-name="Group 5537" transform="translate(0 -46)">
      <g id="Group_5536" data-name="Group 5536" transform="translate(-315.4 130)">
        <rect id="Rectangle_2010" data-name="Rectangle 2010" width="89.683" height="160.845" transform="translate(632.726 1125)" fill="#1894ff"/>
        <rect id="Rectangle_2011" data-name="Rectangle 2011" width="74.234" height="113.194" transform="translate(640.144 1143.333)" fill="#fff"/>
        <circle id="Ellipse_77" data-name="Ellipse 77" cx="8.777" cy="8.777" r="8.777" transform="translate(669.061 1262.247)" fill="#e6f3ff"/>
        <rect id="Rectangle_2012" data-name="Rectangle 2012" width="25.145" height="3.67" transform="translate(669.98 1131.286)" fill="#e6f3ff"/>
        <circle id="Ellipse_78" data-name="Ellipse 78" cx="4.094" cy="4.094" r="4.094" transform="translate(656.779 1129.424)" fill="#e6f3ff"/>
        <path id="Path_15782" data-name="Path 15782" d="M174.62,111.371V118.7s4.888,2.357,11.748-.566,10.215,3.269,18.812,0,11,3.874,20.47,1.312,12.471-3.5,17.61-.691,16.5.479,20.847-2.876v-9.43L251.534,97.4h-66.2Z" transform="translate(458.302 1061.059)" fill="#2361b5" opacity="0.15"/>
        <path id="Path_15783" data-name="Path 15783" d="M180.119,78.15l-13.8,20.58H269.2L254.471,78.15Z" transform="translate(460.08 1065.183)" fill="#00de9a"/>
        <path id="Path_15784" data-name="Path 15784" d="M173.667,112.52c4.063,0,7.347-3.662,7.347-8.18H166.32C166.32,108.858,169.612,112.52,173.667,112.52Z" transform="translate(460.08 1059.573)" fill="#00de9a"/>
        <path id="Path_15785" data-name="Path 15785" d="M192.371,112.52c4.055,0,7.347-3.662,7.347-8.18H185C185,108.858,188.308,112.52,192.371,112.52Z" transform="translate(456.079 1059.573)" fill="#fafafa"/>
        <path id="Path_15786" data-name="Path 15786" d="M211.077,112.52c4.055,0,7.347-3.662,7.347-8.18H203.73C203.73,108.858,207.015,112.52,211.077,112.52Z" transform="translate(452.067 1059.573)" fill="#00de9a"/>
        <path id="Path_15787" data-name="Path 15787" d="M229.777,112.52c4.063,0,7.347-3.662,7.347-8.18H222.43C222.43,108.858,225.722,112.52,229.777,112.52Z" transform="translate(448.061 1059.573)" fill="#fafafa"/>
        <path id="Path_15788" data-name="Path 15788" d="M248.485,112.52c4.055,0,7.347-3.662,7.347-8.18h-14.7C241.13,108.858,244.423,112.52,248.485,112.52Z" transform="translate(444.055 1059.573)" fill="#00de9a"/>
        <path id="Path_15789" data-name="Path 15789" d="M267.187,112.52c4.055,0,7.347-3.662,7.347-8.18H259.84C259.84,108.858,263.109,112.52,267.187,112.52Z" transform="translate(440.048 1059.573)" fill="#fafafa"/>
        <path id="Path_15790" data-name="Path 15790" d="M285.887,112.52c4.063,0,7.347-3.662,7.347-8.18H278.54C278.54,108.858,281.832,112.52,285.887,112.52Z" transform="translate(436.042 1059.573)" fill="#00de9a"/>
        <path id="Path_15791" data-name="Path 15791" d="M185.02,98.73l8.3-20.58H202.9l-3.182,20.58Z" transform="translate(456.074 1065.183)" fill="#fafafa"/>
        <path id="Path_15792" data-name="Path 15792" d="M273.637,98.73l-8.29-20.58H255.76l3.182,20.58Z" transform="translate(440.922 1065.183)" fill="#fafafa"/>
        <path id="Path_15793" data-name="Path 15793" d="M222.43,98.73l.723-20.58h13.091l.88,20.58Z" transform="translate(448.061 1065.183)" fill="#fafafa"/>
      </g>
    </g>
  </g>
</svg>
