<svg xmlns="http://www.w3.org/2000/svg" width="87.269" height="23.425" viewBox="0 0 87.269 23.425"><g transform="translate(-689.132 -2561.796)"><path d="M54.68,39.805,52.9,36.165a1.9,1.9,0,0,0-1.7-1.075H32.5a.766.766,0,0,0-.65.371.8.8,0,0,0-.038.76l1.2,2.385a3.744,3.744,0,0,0,3.348,2.068H54.14a.591.591,0,0,0,.506-.281.618.618,0,0,0,.034-.587Z" transform="translate(657.399 2538.894)" fill="#fff"/><path d="M42.274,40.52H39.48a.5.5,0,0,0-.5.5v2.757a.5.5,0,0,0,.5.5h2.795a.5.5,0,0,0,.5-.5V41.016a.5.5,0,0,0-.5-.5Z" transform="translate(659.829 2540.95)" fill="#fff"/><path d="M110.973,36.965H90.613a.335.335,0,0,1-.285-.146.351.351,0,0,1-.039-.323,8.656,8.656,0,0,0,.473-2.854V30.788a.641.641,0,0,0-.635-.648h-4.32a.641.641,0,0,0-.635.648v2.9a3.274,3.274,0,0,1-3.24,3.281H80.056a.335.335,0,0,1-.277-.142.351.351,0,0,1-.047-.313,8.656,8.656,0,0,0,.459-2.757v-2.9A.655.655,0,0,0,80,30.394a.627.627,0,0,0-.457-.185H75.182a.655.655,0,0,0-.648.648v2.854a3.33,3.33,0,0,1-.964,2.336,3.192,3.192,0,0,1-2.3.946H58.738a1.9,1.9,0,0,0-1.7,1.075l-1.782,3.64a.618.618,0,0,0,.034.587.591.591,0,0,0,.506.281h15.5a8.889,8.889,0,0,0,6.885-3.254l1.242,2.537a1.2,1.2,0,0,0,1.08.676h1.35a8.861,8.861,0,0,0,7.155-3.612l1.269,2.923a1.2,1.2,0,0,0,1.094.731h15.742a3.784,3.784,0,0,0,3.362-2.082l1.161-2.4a.786.786,0,0,0-.021-.755.753.753,0,0,0-.641-.376Z" transform="translate(664.68 2537.019)" fill="#fff"/><path d="M81.463,40.52H73.93a.5.5,0,0,0-.5.5v2.757a.5.5,0,0,0,.5.5h7.533a.5.5,0,0,0,.5-.5V41.016a.5.5,0,0,0-.5-.5Z" transform="translate(671.039 2540.95)" fill="#fff"/><path d="M50.753,40.52H43.22a.5.5,0,0,0-.5.5v2.757a.5.5,0,0,0,.5.5h7.533a.5.5,0,0,0,.5-.5V41.016A.5.5,0,0,0,50.753,40.52Z" transform="translate(661.029 2540.95)" fill="#fff"/><path d="M66.421,40.52H63.64a.481.481,0,0,0-.352.14.5.5,0,0,0-.147.356v2.757a.5.5,0,0,0,.147.356.481.481,0,0,0,.352.14h2.781a.481.481,0,0,0,.352-.14.5.5,0,0,0,.147-.356V41.016a.5.5,0,0,0-.147-.356.481.481,0,0,0-.352-.14Z" transform="translate(667.719 2540.95)" fill="#fff"/><path d="M55.037,26.25H50.406a.491.491,0,0,0-.486.483V43.484a.546.546,0,0,0,.54.538h4.523a.532.532,0,0,0,.527-.538V26.733A.478.478,0,0,0,55.037,26.25Z" transform="translate(663.392 2535.546)" fill="#fff"/></g></svg>