<svg xmlns="http://www.w3.org/2000/svg" width="240.952" height="171.036" viewBox="0 0 240.952 171.036">
  <g id="Group_5545" data-name="Group 5545" transform="translate(-562.524 -186)">
    <g id="Group_5390" data-name="Group 5390" transform="translate(0 -23.964)">
      <g id="loading__two_color" transform="translate(527.364 161.034)">
        <ellipse id="Ellipse_58" data-name="Ellipse 58" cx="120.476" cy="10.586" rx="120.476" ry="10.586" transform="translate(35.16 198.795)" fill="#e6f3ff" opacity="0.45"/>
        <rect id="Rectangle_1974" data-name="Rectangle 1974" width="88.898" height="159.438" transform="translate(115.646 48.93)" fill="#1894ff"/>
        <rect id="Rectangle_1975" data-name="Rectangle 1975" width="73.585" height="112.204" transform="translate(123.007 67.11)" fill="#fff"/>
        <path id="Path_15634" data-name="Path 15634" d="M103.508,158s-20.821,1.558-25.619,23.7-13.031,32.909-29.716,17.83l-3.653,4.8s23.539,28.431,44.57-2.337S103.508,158,103.508,158Z" transform="translate(-2.069 -24.113)" fill="#e6f3ff"/>
        <path id="Path_15635" data-name="Path 15635" d="M103.508,158s-20.821,1.558-25.619,23.7-13.031,32.909-29.716,17.83l-3.653,4.8s23.539,28.431,44.57-2.337S103.508,158,103.508,158Z" transform="translate(-2.069 -24.113)" fill="#e6f3ff" opacity="0.46"/>
        <path id="Path_15636" data-name="Path 15636" d="M145.9,147.987s8.88-1.083,7.789,7.384-3.116,14.87,5.452,15.945,30.8,20.338,27.917,37.6-8.412,21.342-8.412,21.342H138.49Z" transform="translate(-22.844 -21.889)" opacity="0.08"/>
        <path id="Path_15641" data-name="Path 15641" d="M35.34,156.57v10.9h7.041l1.534,4.339,1.823-4.339H52.78v-10.9Z" transform="translate(-0.04 -23.797)" fill="#1894ff"/>
        <circle id="Ellipse_59" data-name="Ellipse 59" cx="1.137" cy="1.137" r="1.137" transform="translate(38.533 136.816)" fill="#fff"/>
        <circle id="Ellipse_60" data-name="Ellipse 60" cx="1.137" cy="1.137" r="1.137" transform="translate(42.879 136.816)" fill="#fff"/>
        <circle id="Ellipse_61" data-name="Ellipse 61" cx="1.137" cy="1.137" r="1.137" transform="translate(47.194 136.816)" fill="#fff"/>
        <circle id="Ellipse_62" data-name="Ellipse 62" cx="8.701" cy="8.701" r="8.701" transform="translate(151.663 184.984)" fill="#fff" opacity="0.56"/>
        <rect id="Rectangle_1978" data-name="Rectangle 1978" width="24.926" height="3.638" transform="translate(152.575 55.161)" opacity="0.12"/>
        <path id="Path_15755" data-name="Path 15755" d="M4.058,0A4.058,4.058,0,1,1,0,4.058,4.058,4.058,0,0,1,4.058,0Z" transform="translate(139.489 53.323)" opacity="0.12"/>
        <path id="Path_15642" data-name="Path 15642" d="M134.037,161.381s-15.22-10.352-31.741,2.337,0,57.157,0,57.157l35.83,1.192S176,188.308,134.037,161.381Z" transform="translate(-13.219 -23.981)" fill="#e6f3ff"/>
        <path id="Path_15643" data-name="Path 15643" d="M161.566,180.926s22.223,29.989,6.231,36.415H153.98S139.865,177.079,161.566,180.926Z" transform="translate(-25.271 -29.124)" fill="#e6f3ff"/>
        <path id="Path_15644" data-name="Path 15644" d="M153.454,217.553,146.981,190.9l-1.924-4.027-4.674-5.071h-7.073s-3.116,3.762,1.106,6.3,4.066,2.773,3.373,8.459v.171a30,30,0,0,1-19.045,24.419l-13.335,5.1S152.675,244.347,153.454,217.553Z" transform="translate(-15.531 -29.375)" fill="#1894ff" opacity="0.08"/>
        <path id="Path_15645" data-name="Path 15645" d="M140.15,160.749s-1.885,8.568-5.452,8.14-3.116-2.6-3.116-2.6-3.458.826-3.895-2.08,2.282-6.115,5.118-6.434S140.15,160.749,140.15,160.749Z" transform="translate(-20.445 -24.058)" fill="#fff"/>
        <path id="Path_15646" data-name="Path 15646" d="M140.138,161.737a24.009,24.009,0,0,0-2,2.08c-.857,1.013-2.407,2.29-4.284,1.309-2.89-1.558-.413-6.052-.413-6.052s1.355-5,4.5-3.357C140.769,157.188,143.355,158.691,140.138,161.737Z" transform="translate(-21.509 -23.535)" fill="#f4a28c"/>
        <path id="Path_15647" data-name="Path 15647" d="M133.3,159.839s.779-1.324-.288-2.111S130.546,159.543,133.3,159.839Z" transform="translate(-21.342 -24.02)" fill="#f4a28c"/>
        <path id="Path_15648" data-name="Path 15648" d="M140.43,164.007s.545-1.457,1.838-1.075S142.362,166,140.43,164.007Z" transform="translate(-23.273 -25.189)" fill="#f4a28c"/>
        <path id="Path_15649" data-name="Path 15649" d="M140.275,159.758s4.557,2.641,5.1-1.815-1.644-2.516-.67-5.538.553-4.074-1.5-4.082-2.469,3.053-3.895.958-2.337-3.677-3.949-2.376-1.854,2.337-1.044,3.895-2.82,2.134-.405,5.452,6.707,1.2,6.707,1.2Z" transform="translate(-21.646 -21.556)"/>
        <path id="Path_15650" data-name="Path 15650" d="M160.326,215.029a7.337,7.337,0,0,0,11.271-7.267,15,15,0,0,0-2.617-6.231c-5.811-8.4-16.022-22.425-16.022-22.425s-9.215-5.967-12.128-1.48,8.007,5.071,8.007,5.071S149.055,207.528,160.326,215.029Z" transform="translate(-23.252 -28.082)" fill="#f4a28c"/>
        <path id="Path_15651" data-name="Path 15651" d="M155.37,180l-4.12,3.591s.678,33.673,15.952,33.618c0,0,10.243.351,6.932-11.684S167.358,195.469,155.37,180Z" transform="translate(-25.665 -28.977)" fill="#e6f3ff"/>
        <path id="Path_15652" data-name="Path 15652" d="M155.37,180l-4.12,3.591s.678,33.673,15.952,33.618c0,0,10.243.351,6.932-11.684S167.358,195.469,155.37,180Z" transform="translate(-25.665 -28.977)" fill="#e6f3ff"/>
        <path id="Path_15653" data-name="Path 15653" d="M97.729,236.074a82.994,82.994,0,0,0,34.6-6.481c6.66-2.765,14.558-4.72,20.6-2.22,12.8,5.3,2.594,26.094-30.246,21.07L92.355,247.08s-18.967,0-21.031-4.175c-2.508-5.094,1.379-8.95,25.6-6.847Z" transform="translate(-7.85 -39.195)" fill="#2361b5"/>
        <path id="Path_15654" data-name="Path 15654" d="M46.807,210.025s-2.742-6.9-5.585-5.686,2.789,9.347,2.789,9.347Z" transform="translate(-1.163 -34.326)" fill="#f4a28c"/>
        <rect id="Rectangle_1981" data-name="Rectangle 1981" width="7.166" height="13.717" transform="translate(38.381 162.721) rotate(-19.19)" fill="#00de9a"/>
        <path id="Path_15655" data-name="Path 15655" d="M137.477,247.63s-14.13,1.908-10.718,5.172,11.754.826,11.754.826Z" transform="translate(-20.133 -43.928)" fill="#e6f3ff"/>
        <path id="Path_15656" data-name="Path 15656" d="M107,252.128l.623-4.378s8.833.475,7.462,3.342S107,252.128,107,252.128Z" transform="translate(-15.882 -43.955)" fill="#e6f3ff"/>
        <g id="Group_5388" data-name="Group 5388" transform="translate(137.721 79.308)">
          <circle id="Ellipse_68" data-name="Ellipse 68" cx="22.114" cy="22.114" r="22.114" fill="#00de9a"/>
          <path id="Path_15700" data-name="Path 15700" d="M189.11,113.12l5.336,8.693L205.3,106.32" transform="translate(-175.479 -91.91)" fill="none" stroke="#fff" stroke-linecap="round" stroke-linejoin="round" stroke-width="5"/>
        </g>
      </g>
    </g>
  </g>
</svg>
