<svg xmlns="http://www.w3.org/2000/svg" width="24" height="26.204" viewBox="0 0 24 26.204">
  <g id="Group_5545" data-name="Group 5545" transform="translate(7767.907 -8631)">
    <g id="Group_5520" data-name="Group 5520" transform="translate(-8250 4937)">
      <g id="Group_5525" data-name="Group 5525" transform="translate(-8)">
        <g id="support" transform="translate(472.337 3694)">
          <g id="Group_5522" data-name="Group 5522" transform="translate(17.756)">
            <path id="Path_15760" data-name="Path 15760" d="M39.227,10.832h-.065V9.243a9.243,9.243,0,1,0-18.486,0v1.589h-.389a2.641,2.641,0,0,0-2.53,2.724V17.61a2.562,2.562,0,0,0,2.5,2.626h2.433a.616.616,0,0,0,.587-.644c0-.012,0-.024,0-.037V11.61c0-.389-.227-.778-.584-.778h-.713V9.243a7.946,7.946,0,0,1,15.891,0v1.589h-.714c-.357,0-.584.389-.584.778v7.946a.616.616,0,0,0,.547.678l.037,0H37.9l-.065.1a5.124,5.124,0,0,1-4.119,2.043,3.211,3.211,0,0,0-6.357.616A3.243,3.243,0,0,0,30.6,26.2,3.34,3.34,0,0,0,32.935,25.2a2.854,2.854,0,0,0,.778-1.557A6.421,6.421,0,0,0,38.87,21.08l.616-.908a2.208,2.208,0,0,0,2.27-2.238V13.881C41.756,12.486,40.719,10.832,39.227,10.832ZM21.973,18.94H20.287a1.265,1.265,0,0,1-1.234-1.3c0-.011,0-.023,0-.035V13.556a1.345,1.345,0,0,1,1.232-1.427h1.686Zm10.021,5.351a1.914,1.914,0,0,1-1.395.616,1.978,1.978,0,0,1-1.946-1.913,1.913,1.913,0,1,1,3.827,0v0A1.719,1.719,0,0,1,31.995,24.291Zm8.465-6.357c0,.876-.843,1.005-1.232,1.005H37.865V12.129h1.362c.713,0,1.232,1.005,1.232,1.751Z" transform="translate(-17.756)" fill="#fff"/>
          </g>
        </g>
      </g>
    </g>
  </g>
</svg>
