<svg xmlns="http://www.w3.org/2000/svg" width="76" height="76" viewBox="0 0 76 76">
  <g id="Group_5546" data-name="Group 5546" transform="translate(-521.5 -154.5)">
    <g id="Group_7" data-name="Group 7" transform="translate(182.838 130)">
      <g id="Card_Content" data-name="Card Content" transform="translate(95 25)">
        <g id="Group_5545" data-name="Group 5545">
          <g id="Initials" transform="translate(244)">
            <circle id="Background" cx="37.5" cy="37.5" r="37.5" transform="translate(0.162)" fill="#1894ff" stroke="rgba(0,0,0,0)" stroke-width="1"/>
          </g>
        </g>
        <path id="_Icon_Color" data-name="🔹 Icon Color" d="M21.333,25.333V22.667a4,4,0,0,0-4-4H6.667a4,4,0,0,0-4,4v2.666a1.333,1.333,0,1,1-2.667,0V22.667A6.666,6.666,0,0,1,6.667,16H17.333A6.666,6.666,0,0,1,24,22.667v2.666a1.333,1.333,0,1,1-2.667,0ZM7.286,11.381A6.667,6.667,0,1,1,12,13.333,6.623,6.623,0,0,1,7.286,11.381ZM8,6.667a4,4,0,1,0,4-4A4,4,0,0,0,8,6.667Z" transform="translate(270 24)" fill="#fff"/>
      </g>
    </g>
  </g>
</svg>
